<svg width="300" height="200" viewBox="0 0 300 200" xmlns="http://www.w3.org/2000/svg">
  <!-- 背景渐变 -->
  <defs>
    <linearGradient id="bg1" x1="0%" y1="0%" x2="100%" y2="100%">
      <stop offset="0%" style="stop-color:#667eea;stop-opacity:1" />
      <stop offset="100%" style="stop-color:#764ba2;stop-opacity:1" />
    </linearGradient>
    <linearGradient id="card1" x1="0%" y1="0%" x2="100%" y2="100%">
      <stop offset="0%" style="stop-color:#f093fb;stop-opacity:1" />
      <stop offset="100%" style="stop-color:#f5576c;stop-opacity:1" />
    </linearGradient>
  </defs>
  
  <!-- 背景 -->
  <rect width="300" height="200" fill="url(#bg1)"/>
  
  <!-- 卡片1 -->
  <rect x="50" y="40" width="80" height="60" rx="8" fill="url(#card1)" opacity="0.9"/>
  <rect x="60" y="50" width="60" height="8" rx="4" fill="white" opacity="0.8"/>
  <rect x="60" y="65" width="40" height="6" rx="3" fill="white" opacity="0.6"/>
  <rect x="60" y="75" width="50" height="6" rx="3" fill="white" opacity="0.6"/>
  
  <!-- 卡片2 -->
  <rect x="150" y="60" width="80" height="60" rx="8" fill="white" opacity="0.9"/>
  <rect x="160" y="70" width="60" height="8" rx="4" fill="#667eea"/>
  <rect x="160" y="85" width="40" height="6" rx="3" fill="#667eea" opacity="0.7"/>
  <rect x="160" y="95" width="50" height="6" rx="3" fill="#667eea" opacity="0.7"/>
  
  <!-- 连接线 -->
  <path d="M130 70 Q140 80 150 90" stroke="white" stroke-width="2" fill="none" opacity="0.6"/>
  
  <!-- 装饰元素 -->
  <circle cx="80" cy="30" r="3" fill="white" opacity="0.6"/>
  <circle cx="200" cy="25" r="2" fill="white" opacity="0.4"/>
  <circle cx="250" cy="50" r="2.5" fill="white" opacity="0.5"/>
</svg>
