<svg width="300" height="200" viewBox="0 0 300 200" xmlns="http://www.w3.org/2000/svg">
  <!-- 背景渐变 -->
  <defs>
    <linearGradient id="bg2" x1="0%" y1="0%" x2="100%" y2="100%">
      <stop offset="0%" style="stop-color:#4facfe;stop-opacity:1" />
      <stop offset="100%" style="stop-color:#00f2fe;stop-opacity:1" />
    </linearGradient>
    <linearGradient id="card2" x1="0%" y1="0%" x2="100%" y2="100%">
      <stop offset="0%" style="stop-color:#43e97b;stop-opacity:1" />
      <stop offset="100%" style="stop-color:#38f9d7;stop-opacity:1" />
    </linearGradient>
  </defs>
  
  <!-- 背景 -->
  <rect width="300" height="200" fill="url(#bg2)"/>
  
  <!-- 主界面框架 -->
  <rect x="30" y="30" width="240" height="140" rx="12" fill="white" opacity="0.95"/>
  
  <!-- 标题栏 -->
  <rect x="30" y="30" width="240" height="25" rx="12" fill="#4facfe" opacity="0.8"/>
  <circle cx="45" cy="42" r="4" fill="#ff5f57"/>
  <circle cx="60" cy="42" r="4" fill="#ffbd2e"/>
  <circle cx="75" cy="42" r="4" fill="#28ca42"/>
  
  <!-- 内容区域 -->
  <rect x="50" y="70" width="200" height="8" rx="4" fill="#4facfe" opacity="0.6"/>
  <rect x="50" y="85" width="150" height="6" rx="3" fill="#4facfe" opacity="0.4"/>
  <rect x="50" y="95" width="180" height="6" rx="3" fill="#4facfe" opacity="0.4"/>
  
  <!-- 侧边栏 -->
  <rect x="50" y="110" width="60" height="50" rx="6" fill="url(#card2)" opacity="0.8"/>
  <rect x="60" y="120" width="40" height="6" rx="3" fill="white" opacity="0.9"/>
  <rect x="60" y="130" width="30" height="4" rx="2" fill="white" opacity="0.7"/>
  <rect x="60" y="138" width="35" height="4" rx="2" fill="white" opacity="0.7"/>
  
  <!-- 装饰图标 -->
  <circle cx="200" cy="120" r="8" fill="#43e97b" opacity="0.8"/>
  <circle cx="220" cy="140" r="6" fill="#38f9d7" opacity="0.6"/>
  <circle cx="180" cy="150" r="5" fill="#4facfe" opacity="0.5"/>
</svg>
